<svg preserveAspectRatio="none" overflow="visible" style="display: block;" width="256" height="256" viewBox="0 0 256 256" fill="none" xmlns="http://www.w3.org/2000/svg">
<g id="COMI Master Vector">
<rect width="256" height="256" fill="#FFFDF8"/>
<rect id="Rectangle 11" x="145.428" y="89.3298" width="58" height="54" rx="10" transform="rotate(-51.386 145.428 89.3298)" fill="#A82A31"/>
<g id="Group 5">
<rect id="Rectangle 12" x="157.476" y="87.6637" width="56" height="66" rx="10" transform="rotate(-26.2247 157.476 87.6637)" fill="#FCCCCC"/>
<path id="Rectangle 13" d="M199.17 85.7576C200.856 84.9103 202.909 85.5977 203.745 87.2893C204.573 88.965 203.894 90.995 202.224 91.8344L192.243 96.8505C190.557 97.6979 188.504 97.0105 187.668 95.3189C186.839 93.6432 187.519 91.6131 189.189 90.7737L199.17 85.7576Z" fill="white"/>
<path id="Rectangle 14" d="M204.702 96.0723C206.388 95.2249 208.442 95.9123 209.278 97.6039C210.106 99.2796 209.426 101.31 207.756 102.149L197.776 107.165C196.09 108.013 194.036 107.325 193.2 105.633C192.372 103.958 193.051 101.928 194.722 101.088L204.702 96.0723Z" fill="white"/>
<path id="Rectangle 15" d="M210.488 107.361C212.174 106.513 214.227 107.201 215.063 108.892C215.892 110.568 215.212 112.598 213.542 113.437L203.561 118.454C201.875 119.301 199.822 118.614 198.986 116.922C198.158 115.246 198.837 113.216 200.507 112.377L210.488 107.361Z" fill="white"/>
</g>
<path id="Union" d="M110 54C153.788 54 189.358 89.1799 189.99 132.817L190.038 132.771L190 134C190 134.666 189.991 135.331 189.975 135.993C189.999 140.997 190.807 144.736 193.214 147.134C195.92 149.829 200.802 150.977 209.444 150.003L209.472 150H209.5C212.076 150 214.397 150.772 215.656 152.521C216.931 154.291 216.991 156.88 215.454 160.21C214.678 161.892 212.216 165.762 208.241 170.679C204.257 175.606 198.732 181.612 191.808 187.56C177.962 199.453 158.493 211.141 134.549 213.498L134.548 213.497C125.882 214.655 118.865 214.623 111.51 214.194L111.355 214.352L111.176 214.174C110.279 214.12 109.376 214.063 108.465 213.999L108.161 213.978C64.8277 213 30 177.568 30 134C30 89.8172 65.8172 54 110 54Z" fill="#FFF0D6"/>
<rect id="Rectangle 9" x="77" y="105" width="14" height="34" rx="7" fill="#FFFDF8"/>
<rect id="Rectangle 10" x="111" y="105" width="14" height="34" rx="7" fill="#FFFDF8"/>
</g>
</svg>
